<?xml version="1.0" encoding="utf-8"?><svg xmlns="http://www.w3.org/2000/svg" xmlns:xlink="http://www.w3.org/1999/xlink"><symbol viewBox="0 0 48 48" id="about-message-icon" xmlns="http://www.w3.org/2000/svg"><path d="M24 24.9L7 13.75V37h19.5v3H7q-1.2 0-2.1-.9Q4 38.2 4 37V11q0-1.2.9-2.1Q5.8 8 7 8h34q1.2 0 2.1.9.9.9.9 2.1v15.5h-3V13.75zm0-3L41 11H7zm14.7 23.9l-2.1-2.1 3.65-3.7H29.5v-3h10.75l-3.7-3.7 2.15-2.1 7.3 7.3zM7 13.75V38.7 26.5v.2V11z"/></symbol><symbol viewBox="0 0 48 48" id="about-telegram-icon" xmlns="http://www.w3.org/2000/svg"><path d="M12 28.05h15.65v-3H12zm0-6.5h24v-3H12zm0-6.5h24v-3H12zM4 44V7q0-1.15.9-2.075Q5.8 4 7 4h34q1.15 0 2.075.925Q44 5.85 44 7v26q0 1.15-.925 2.075Q42.15 36 41 36H12zm3-7.25L10.75 33H41V7H7zM7 7v29.75z"/></symbol><symbol viewBox="0 0 48 48" id="arrow-right-icon" xmlns="http://www.w3.org/2000/svg"><path d="M18.75 36l-2.15-2.15 9.9-9.9-9.9-9.9 2.15-2.15L30.8 23.95z"/></symbol><symbol viewBox="0 0 48 48" id="arrow-top-icon" xmlns="http://www.w3.org/2000/svg"><path d="M14.15 30.75L12 28.6l12-12 12 11.95-2.15 2.15L24 20.85z"/></symbol><symbol fill="currentColor" viewBox="0 0 512 512" id="blender-icon" xmlns="http://www.w3.org/2000/svg"><path d="M510.003 279.642c-2.998-21.097-10.305-41.104-21.724-59.459-9.96-16.019-22.739-30.266-37.992-42.375l.041-.038L290.133 54.731a4.569 4.569 0 00-.361-.287c-5.327-4.08-12.538-6.325-20.298-6.325-7.769 0-15.262 2.25-21.088 6.337-6.263 4.375-9.843 10.18-10.093 16.36-.229 5.764 2.521 11.311 7.764 15.636 10.31 8.134 20.598 16.447 30.898 24.768 9.997 8.08 20.298 16.401 30.549 24.502l-196.213-.133c-22.439 0-37.718 10.537-40.861 28.178-1.381 7.727 1.056 16.223 6.504 22.73 5.78 6.899 14.172 10.704 23.629 10.704l14.958.009c20.664 0 41.419-.05 62.146-.1l19.766-.046L19.354 328.812l-.707.516C8.7 336.954 2.188 347.642.783 358.653c-1.065 8.342.881 15.965 5.63 22.053 5.66 7.257 14.497 11.249 24.885 11.249 10.205 0 20.618-3.867 29.334-10.908l96.166-78.7c-.411 3.843-.91 9.481-.853 13.573.108 6.479 2.188 19.479 5.481 30.033 6.804 21.691 18.265 41.536 34.063 58.964 16.438 18.131 36.458 32.508 59.5 42.721 24.361 10.774 50.547 16.243 77.836 16.243h.253c27.376-.066 53.646-5.622 78.085-16.518 23.08-10.334 43.091-24.769 59.467-42.899 15.778-17.516 27.222-37.394 34.013-59.067a151.126 151.126 0 006.417-33.003c.839-10.829.478-21.849-1.057-32.752zM334.821 383.601c-60.142 0-108.912-43.627-108.912-97.447 0-53.815 48.771-97.442 108.912-97.442 60.141 0 108.907 43.627 108.907 97.442.001 53.82-48.766 97.447-108.907 97.447zm62.806-106.01c.886 16.064-5.53 30.978-16.796 42.019-11.461 11.248-27.816 18.313-46.102 18.313-18.281 0-34.637-7.065-46.102-18.313-11.262-11.041-17.665-25.954-16.784-42.006.865-15.603 8.476-29.376 19.94-39.128 11.273-9.589 26.411-15.44 42.945-15.44 16.538 0 31.671 5.852 42.945 15.44 11.467 9.752 19.081 23.516 19.954 39.115z"/></symbol><symbol viewBox="0 0 576 512" fill="currentColor" id="bootstrap-icon" xmlns="http://www.w3.org/2000/svg"><path d="M333.5 201.4c0-22.1-15.6-34.3-43-34.3h-50.4v71.2h42.5c32.8-.1 50.9-13.3 50.9-36.9zM517 188.6c-9.5-30.9-10.9-68.8-9.8-98.1C508.3 60 484.5 32 452.5 32H123.7C91.6 32 67.9 60.1 69 90.5c1 29.3-.3 67.2-9.8 98.1-9.6 31-25.7 50.6-52.2 53.1v28.5c26.4 2.5 42.6 22.1 52.2 53.1 9.5 30.9 10.9 68.8 9.8 98.1-1.1 30.5 22.7 58.5 54.7 58.5h328.7c32.1 0 55.8-28.1 54.7-58.5-1-29.3.3-67.2 9.8-98.1 9.6-31 25.7-50.6 52.1-53.1v-28.5c-26.3-2.5-42.5-22.1-52-53.1zM300.2 375.1h-97.9V136.8h97.4c43.3 0 71.7 23.4 71.7 59.4 0 25.3-19.1 47.9-43.5 51.8v1.3c33.2 3.6 55.5 26.6 55.5 58.3 0 42.1-31.3 67.5-83.2 67.5zm-10-108.7h-50.1v78.4h52.3c34.2 0 52.3-13.7 52.3-39.5 0-25.7-18.6-38.9-54.5-38.9z"/></symbol><symbol viewBox="0 0 48 48" id="copy-icon" xmlns="http://www.w3.org/2000/svg"><path d="M8.75 45.15q-1.6 0-2.775-1.175Q4.8 42.8 4.8 41.2V11.3h3.95v29.9H32.2v3.95zm7-6.95q-1.65 0-2.825-1.175Q11.75 35.85 11.75 34.2V6.7q0-1.6 1.175-2.775Q14.1 2.75 15.75 2.75h21.5q1.6 0 2.775 1.175Q41.2 5.1 41.2 6.7v27.5q0 1.65-1.175 2.825Q38.85 38.2 37.25 38.2zm0-4h21.5V6.7h-21.5v27.5zm0 0V6.7v27.5z"/></symbol><symbol fill="currentColor" viewBox="0 0 512 512" id="corel-icon" xmlns="http://www.w3.org/2000/svg"><path d="M239.532 463.443h32.923c5.977 0 10.85 4.873 10.85 10.85v26.369c0 5.963-4.873 10.837-10.85 10.837h-32.923c-5.963 0-10.837-4.874-10.837-10.837v-26.369c0-5.977 4.874-10.85 10.837-10.85zm-137.007-317.42c.412 81.391 69.535 208.35 133.431 295.97h6.288c-48.593-88.639-90.036-197.933-90.402-284.073-.341-78.151 31.58-127.745 74.662-156.048-9.564.89-19.146 2.217-28.64 4.042-53.13 21.126-95.72 64.724-95.339 140.109zM243.163.753c-24.897 33.505-44.102 81.012-43.931 149.948.229 89.978 21.279 196.93 48.426 291.292h16.684c27.147-94.361 48.197-201.314 48.427-291.292.17-68.936-19.034-116.443-43.931-149.948a327.113 327.113 0 00-25.675 0zm166.312 145.27c-.411 81.391-69.534 208.35-133.431 295.97h-6.287c48.592-88.639 90.036-197.933 90.397-284.073.346-78.15-31.575-127.745-74.657-156.048 9.564.89 19.146 2.217 28.627 4.042 53.142 21.126 95.73 64.724 95.351 140.109zm-129.093 295.97c71.526-75.27 152.676-201.084 153.212-298.033.325-59.454-28.614-98.881-69.151-122.959 49.665 21.308 87.449 60.635 87.083 124.556-.582 98.475-94.968 228.569-169.9 296.436h-1.244zm-48.763 0C160.092 366.724 78.943 240.909 78.406 143.96c-.324-59.454 28.603-98.881 69.14-122.959C97.894 42.31 60.109 81.637 60.475 145.557c.583 98.475 94.969 228.569 169.9 296.436h1.244zm0 0"/></symbol><symbol viewBox="0 0 384 512" fill="currentColor" id="css-icon" xmlns="http://www.w3.org/2000/svg"><path d="M0 32l34.9 395.8L192 480l157.1-52.2L384 32H0zm313.1 80l-4.8 47.3L193 208.6l-.3.1h111.5l-12.8 146.6-98.2 28.7-98.8-29.2-6.4-73.9h48.9l3.2 38.3 52.6 13.3 54.7-15.4 3.7-61.6-166.3-.5v-.1l-.2.1-3.6-46.3L193.1 162l6.5-2.7H76.7L70.9 112h242.2z"/></symbol><symbol viewBox="0 0 48 48" id="done-all-icon" xmlns="http://www.w3.org/2000/svg"><path d="M14.75 37.25L2.85 25.4l2.8-2.85 9.05 9.05 2.85 2.85zm8.45-.65L11.3 24.65l2.85-2.8 9.05 9.05 19.15-19.15 2.9 2.8zm0-9.25l-2.8-2.8L33.25 11.7l2.8 2.8z"/></symbol><symbol viewBox="0 0 512 512" id="footer-codepen-icon" xmlns="http://www.w3.org/2000/svg"><path d="M502.285 159.704l-234-156c-7.987-4.915-16.511-4.96-24.571 0l-234 156C3.714 163.703 0 170.847 0 177.989v155.999c0 7.143 3.714 14.286 9.715 18.286l234 156.022c7.987 4.915 16.511 4.96 24.571 0l234-156.022c6-3.999 9.715-11.143 9.715-18.286V177.989c-.001-7.142-3.715-14.286-9.716-18.285zM278 63.131l172.286 114.858-76.857 51.429L278 165.703V63.131zm-44 0v102.572l-95.429 63.715-76.857-51.429L234 63.131zM44 219.132l55.143 36.857L44 292.846v-73.714zm190 229.715L61.714 333.989l76.857-51.429L234 346.275v102.572zm22-140.858l-77.715-52 77.715-52 77.715 52-77.715 52zm22 140.858V346.275l95.429-63.715 76.857 51.429L278 448.847zm190-156.001l-55.143-36.857L468 219.132v73.714z"/></symbol><symbol viewBox="0 0 480 512" id="footer-github-icon" xmlns="http://www.w3.org/2000/svg"><path d="M186.1 328.7c0 20.9-10.9 55.1-36.7 55.1s-36.7-34.2-36.7-55.1 10.9-55.1 36.7-55.1 36.7 34.2 36.7 55.1zM480 278.2c0 31.9-3.2 65.7-17.5 95-37.9 76.6-142.1 74.8-216.7 74.8-75.8 0-186.2 2.7-225.6-74.8-14.6-29-20.2-63.1-20.2-95 0-41.9 13.9-81.5 41.5-113.6-5.2-15.8-7.7-32.4-7.7-48.8 0-21.5 4.9-32.3 14.6-51.8 45.3 0 74.3 9 108.8 36 29-6.9 58.8-10 88.7-10 27 0 54.2 2.9 80.4 9.2 34-26.7 63-35.2 107.8-35.2 9.8 19.5 14.6 30.3 14.6 51.8 0 16.4-2.6 32.7-7.7 48.2 27.5 32.4 39 72.3 39 114.2zm-64.3 50.5c0-43.9-26.7-82.6-73.5-82.6-18.9 0-37 3.4-56 6-14.9 2.3-29.8 3.2-45.1 3.2-15.2 0-30.1-.9-45.1-3.2-18.7-2.6-37-6-56-6-46.8 0-73.5 38.7-73.5 82.6 0 87.8 80.4 101.3 150.4 101.3h48.2c70.3 0 150.6-13.4 150.6-101.3zm-82.6-55.1c-25.8 0-36.7 34.2-36.7 55.1s10.9 55.1 36.7 55.1 36.7-34.2 36.7-55.1-10.9-55.1-36.7-55.1z"/></symbol><symbol viewBox="0 0 448 512" id="footer-instagram-icon" xmlns="http://www.w3.org/2000/svg"><path d="M224.1 141c-63.6 0-114.9 51.3-114.9 114.9s51.3 114.9 114.9 114.9S339 319.5 339 255.9 287.7 141 224.1 141zm0 189.6c-41.1 0-74.7-33.5-74.7-74.7s33.5-74.7 74.7-74.7 74.7 33.5 74.7 74.7-33.6 74.7-74.7 74.7zm146.4-194.3c0 14.9-12 26.8-26.8 26.8-14.9 0-26.8-12-26.8-26.8s12-26.8 26.8-26.8 26.8 12 26.8 26.8zm76.1 27.2c-1.7-35.9-9.9-67.7-36.2-93.9-26.2-26.2-58-34.4-93.9-36.2-37-2.1-147.9-2.1-184.9 0-35.8 1.7-67.6 9.9-93.9 36.1s-34.4 58-36.2 93.9c-2.1 37-2.1 147.9 0 184.9 1.7 35.9 9.9 67.7 36.2 93.9s58 34.4 93.9 36.2c37 2.1 147.9 2.1 184.9 0 35.9-1.7 67.7-9.9 93.9-36.2 26.2-26.2 34.4-58 36.2-93.9 2.1-37 2.1-147.8 0-184.8zM398.8 388c-7.8 19.6-22.9 34.7-42.6 42.6-29.5 11.7-99.5 9-132.1 9s-102.7 2.6-132.1-9c-19.6-7.8-34.7-22.9-42.6-42.6-11.7-29.5-9-99.5-9-132.1s-2.6-102.7 9-132.1c7.8-19.6 22.9-34.7 42.6-42.6 29.5-11.7 99.5-9 132.1-9s102.7-2.6 132.1 9c19.6 7.8 34.7 22.9 42.6 42.6 11.7 29.5 9 99.5 9 132.1s2.7 102.7-9 132.1z"/></symbol><symbol viewBox="0 0 448 512" id="footer-linkedin-icon" xmlns="http://www.w3.org/2000/svg"><path d="M416 32H31.9C14.3 32 0 46.5 0 64.3v383.4C0 465.5 14.3 480 31.9 480H416c17.6 0 32-14.5 32-32.3V64.3c0-17.8-14.4-32.3-32-32.3zM135.4 416H69V202.2h66.5V416zm-33.2-243c-21.3 0-38.5-17.3-38.5-38.5S80.9 96 102.2 96c21.2 0 38.5 17.3 38.5 38.5 0 21.3-17.2 38.5-38.5 38.5zm282.1 243h-66.4V312c0-24.8-.5-56.7-34.5-56.7-34.6 0-39.9 27-39.9 54.9V416h-66.4V202.2h63.7v29.2h.9c8.9-16.8 30.6-34.5 62.9-34.5 67.2 0 79.7 44.3 79.7 101.9V416z"/></symbol><symbol viewBox="0 0 448 512" fill="currentColor" id="git-icon" xmlns="http://www.w3.org/2000/svg"><path d="M439.6 236.1L244 40.5a28.9 28.9 0 00-40.8 0l-40.7 40.6 51.5 51.5c27.1-9.1 52.7 16.8 43.4 43.7l49.7 49.7c34.2-11.8 61.2 31 35.5 56.7-26.5 26.5-70.2-2.9-56-37.3L240.2 199v121.9c25.3 12.5 22.3 41.9 9.1 55a34.3 34.3 0 01-48.6 0c-17.6-17.6-11.1-46.9 11.3-56v-123c-20.8-8.5-24.6-30.7-18.6-45L142.6 101 8.5 235.1a28.9 28.9 0 000 40.8l195.6 195.6a28.9 28.9 0 0040.8 0l194.7-194.7a28.9 28.9 0 000-40.8z"/></symbol><symbol viewBox="0 0 256 512" fill="currentColor" id="gulp-icon" xmlns="http://www.w3.org/2000/svg"><path d="M209.8 391.1l-14.1 24.6-4.6 80.2c0 8.9-28.3 16.1-63.1 16.1s-63.1-7.2-63.1-16.1l-5.8-79.4-14.9-25.4c41.2 17.3 126 16.7 165.6 0zm-196-253.3l13.6 125.5c5.9-20 20.8-47 40-55.2 6.3-2.7 12.7-2.7 18.7.9 5.2 3 9.6 9.3 10.1 11.8 1.2 6.5-2 9.1-4.5 9.1-3 0-5.3-4.6-6.8-7.3-4.1-7.3-10.3-7.6-16.9-2.8-6.9 5-12.9 13.4-17.1 20.7-5.1 8.8-9.4 18.5-12 28.2-1.5 5.6-2.9 14.6-.6 19.9 1 2.2 2.5 3.6 4.9 3.6 5 0 12.3-6.6 15.8-10.1 4.5-4.5 10.3-11.5 12.5-16l5.2-15.5c2.6-6.8 9.9-5.6 9.9 0 0 10.2-3.7 13.6-10 34.7-5.8 19.5-7.6 25.8-7.6 25.8-.7 2.8-3.4 7.5-6.3 7.5-1.2 0-2.1-.4-2.6-1.2-1-1.4-.9-5.3-.8-6.3.2-3.2 6.3-22.2 7.3-25.2-2 2.2-4.1 4.4-6.4 6.6-5.4 5.1-14.1 11.8-21.5 11.8-3.4 0-5.6-.9-7.7-2.4l7.6 79.6c2 5 39.2 17.1 88.2 17.1 49.1 0 86.3-12.2 88.2-17.1l10.9-94.6c-5.7 5.2-12.3 11.6-19.6 14.8-5.4 2.3-17.4 3.8-17.4-5.7 0-5.2 9.1-14.8 14.4-21.5 1.4-1.7 4.7-5.9 4.7-8.1 0-2.9-6-2.2-11.7 2.5-3.2 2.7-6.2 6.3-8.7 9.7-4.3 6-6.6 11.2-8.5 15.5-6.2 14.2-4.1 8.6-9.1 22-5 13.3-4.2 11.8-5.2 14-.9 1.9-2.2 3.5-4 4.5-1.9 1-4.5.9-6.1-.3-.9-.6-1.3-1.9-1.3-3.7 0-.9.1-1.8.3-2.7 1.5-6.1 7.8-18.1 15-34.3 1.6-3.7 1-2.6.8-2.3-6.2 6-10.9 8.9-14.4 10.5-5.8 2.6-13 2.6-14.5-4.1-.1-.4-.1-.8-.2-1.2-11.8 9.2-24.3 11.7-20-8.1-4.6 8.2-12.6 14.9-22.4 14.9-4.1 0-7.1-1.4-8.6-5.1-2.3-5.5 1.3-14.9 4.6-23.8 1.7-4.5 4-9.9 7.1-16.2 1.6-3.4 4.2-5.4 7.6-4.5.6.2 1.1.4 1.6.7 2.6 1.8 1.6 4.5.3 7.2-3.8 7.5-7.1 13-9.3 20.8-.9 3.3-2 9 1.5 9 2.4 0 4.7-.8 6.9-2.4 4.6-3.4 8.3-8.5 11.1-13.5 2-3.6 4.4-8.3 5.6-12.3.5-1.7 1.1-3.3 1.8-4.8 1.1-2.5 2.6-5.1 5.2-5.1 1.3 0 2.4.5 3.2 1.5 1.7 2.2 1.3 4.5.4 6.9-2 5.6-4.7 10.6-6.9 16.7-1.3 3.5-2.7 8-2.7 11.7 0 3.4 3.7 2.6 6.8 1.2 2.4-1.1 4.8-2.8 6.8-4.5 1.2-4.9.9-3.8 26.4-68.2 1.3-3.3 3.7-4.7 6.1-4.7 1.2 0 2.2.4 3.2 1.1 1.7 1.3 1.7 4.1 1 6.2-.7 1.9-.6 1.3-4.5 10.5-5.2 12.1-8.6 20.8-13.2 31.9-1.9 4.6-7.7 18.9-8.7 22.3-.6 2.2-1.3 5.8 1 5.8 5.4 0 19.3-13.1 23.1-17 .2-.3.5-.4.9-.6.6-1.9 1.2-3.7 1.7-5.5 1.4-3.8 2.7-8.2 5.3-11.3.8-1 1.7-1.6 2.7-1.6 2.8 0 4.2 1.2 4.2 4 0 1.1-.7 5.1-1.1 6.2 1.4-1.5 2.9-3 4.5-4.5 15-13.9 25.7-6.8 25.7.2 0 7.4-8.9 17.7-13.8 23.4-1.6 1.9-4.9 5.4-5 6.4 0 1.3.9 1.8 2.2 1.8 2 0 6.4-3.5 8-4.7 5-3.9 11.8-9.9 16.6-14.1l14.8-136.8c-30.5 17.1-197.6 17.2-228.3.2zm229.7-8.5c0 21-231.2 21-231.2 0 0-8.8 51.8-15.9 115.6-15.9 9 0 17.8.1 26.3.4l12.6-48.7L228.1.6c1.4-1.4 5.8-.2 9.9 3.5s6.6 7.9 5.3 9.3l-.1.1L185.9 74l-10 40.7c39.9 2.6 67.6 8.1 67.6 14.6zm-69.4 4.6c0-.8-.9-1.5-2.5-2.1l-.2.8c0 1.3-5 2.4-11.1 2.4s-11.1-1.1-11.1-2.4c0-.1 0-.2.1-.3l.2-.7c-1.8.6-3 1.4-3 2.3 0 2.1 6.2 3.7 13.7 3.7 7.7.1 13.9-1.6 13.9-3.7z"/></symbol><symbol viewBox="0 0 48 48" id="header-arrow-back" xmlns="http://www.w3.org/2000/svg"><path d="M24 40L8 24 24 8l2.1 2.1-12.4 12.4H40v3H13.7l12.4 12.4z"/></symbol><symbol viewBox="0 0 48 48" id="header-command-icon" xmlns="http://www.w3.org/2000/svg"><path d="M12.5 42q-2.7 0-4.6-1.9Q6 38.2 6 35.5q0-2.7 1.9-4.6Q9.8 29 12.5 29H16V19h-3.5q-2.7 0-4.6-1.9Q6 15.2 6 12.5q0-2.7 1.9-4.6Q9.8 6 12.5 6q2.7 0 4.6 1.9Q19 9.8 19 12.5V16h10v-3.5q0-2.7 1.9-4.6Q32.8 6 35.5 6q2.7 0 4.6 1.9Q42 9.8 42 12.5q0 2.7-1.9 4.6-1.9 1.9-4.6 1.9H32v10h3.5q2.7 0 4.6 1.9 1.9 1.9 1.9 4.6 0 2.7-1.9 4.6-1.9 1.9-4.6 1.9-2.7 0-4.6-1.9-1.9-1.9-1.9-4.6V32H19v3.5q0 2.7-1.9 4.6-1.9 1.9-4.6 1.9zm0-3q1.45 0 2.475-1.025Q16 36.95 16 35.5V32h-3.5q-1.45 0-2.475 1.025Q9 34.05 9 35.5q0 1.45 1.025 2.475Q11.05 39 12.5 39zm23 0q1.45 0 2.475-1.025Q39 36.95 39 35.5q0-1.45-1.025-2.475Q36.95 32 35.5 32H32v3.5q0 1.45 1.025 2.475Q34.05 39 35.5 39zM19 29h10V19H19zm-6.5-13H16v-3.5q0-1.45-1.025-2.475Q13.95 9 12.5 9q-1.45 0-2.475 1.025Q9 11.05 9 12.5q0 1.45 1.025 2.475Q11.05 16 12.5 16zM32 16h3.5q1.45 0 2.475-1.025Q39 13.95 39 12.5q0-1.45-1.025-2.475Q36.95 9 35.5 9q-1.45 0-2.475 1.025Q32 11.05 32 12.5z"/></symbol><symbol viewBox="0 0 48 48" id="header-menu-icon" xmlns="http://www.w3.org/2000/svg"><path d="M6 36v-3h36v3zm0-10.5v-3h36v3zM6 15v-3h36v3z"/></symbol><symbol viewBox="0 0 48 48" id="header-moon-icon" xmlns="http://www.w3.org/2000/svg"><path d="M24 42q-7.5 0-12.75-5.25T6 24q0-7.5 5.25-12.75T24 6q.4 0 .85.025.45.025 1.15.075-1.8 1.6-2.8 3.95-1 2.35-1 4.95 0 4.5 3.15 7.65Q28.5 25.8 33 25.8q2.6 0 4.95-.925T41.9 22.3q.05.6.075.975Q42 23.65 42 24q0 7.5-5.25 12.75T24 42zm0-3q5.45 0 9.5-3.375t5.05-7.925q-1.25.55-2.675.825Q34.45 28.8 33 28.8q-5.75 0-9.775-4.025T19.2 15q0-1.2.25-2.575.25-1.375.9-3.125-4.9 1.35-8.125 5.475Q9 18.9 9 24q0 6.25 4.375 10.625T24 39zm-.2-14.85z"/></symbol><symbol viewBox="0 0 48 48" id="header-sun-icon" xmlns="http://www.w3.org/2000/svg"><path d="M24 31q2.9 0 4.95-2.05Q31 26.9 31 24q0-2.9-2.05-4.95Q26.9 17 24 17q-2.9 0-4.95 2.05Q17 21.1 17 24q0 2.9 2.05 4.95Q21.1 31 24 31zm0 3q-4.15 0-7.075-2.925T14 24q0-4.15 2.925-7.075T24 14q4.15 0 7.075 2.925T34 24q0 4.15-2.925 7.075T24 34zM3.5 25.5q-.65 0-1.075-.425Q2 24.65 2 24q0-.65.425-1.075Q2.85 22.5 3.5 22.5h5q.65 0 1.075.425Q10 23.35 10 24q0 .65-.425 1.075-.425.425-1.075.425zm36 0q-.65 0-1.075-.425Q38 24.65 38 24q0-.65.425-1.075.425-.425 1.075-.425h5q.65 0 1.075.425Q46 23.35 46 24q0 .65-.425 1.075-.425.425-1.075.425zM24 10q-.65 0-1.075-.425Q22.5 9.15 22.5 8.5v-5q0-.65.425-1.075Q23.35 2 24 2q.65 0 1.075.425.425.425.425 1.075v5q0 .65-.425 1.075Q24.65 10 24 10zm0 36q-.65 0-1.075-.425-.425-.425-.425-1.075v-5q0-.65.425-1.075Q23.35 38 24 38q.65 0 1.075.425.425.425.425 1.075v5q0 .65-.425 1.075Q24.65 46 24 46zM12 14.1l-2.85-2.8q-.45-.45-.425-1.075.025-.625.425-1.075.45-.45 1.075-.45t1.075.45L14.1 12q.4.45.4 1.05 0 .6-.4 1-.4.45-1.025.45-.625 0-1.075-.4zm24.7 24.75L33.9 36q-.4-.45-.4-1.075t.45-1.025q.4-.45 1-.45t1.05.45l2.85 2.8q.45.45.425 1.075-.025.625-.425 1.075-.45.45-1.075.45t-1.075-.45zM33.9 14.1q-.45-.45-.45-1.05 0-.6.45-1.05l2.8-2.85q.45-.45 1.075-.425.625.025 1.075.425.45.45.45 1.075t-.45 1.075L36 14.1q-.4.4-1.025.4-.625 0-1.075-.4zM9.15 38.85q-.45-.45-.45-1.075t.45-1.075L12 33.9q.45-.45 1.05-.45.6 0 1.05.45.45.45.45 1.05 0 .6-.45 1.05l-2.8 2.85q-.45.45-1.075.425-.625-.025-1.075-.425zM24 24z"/></symbol><symbol viewBox="0 0 48 48" id="home-stars-more-project" xmlns="http://www.w3.org/2000/svg"><path d="M38.6 16.25l-2.15-5-5.2-2.3 5.2-2.25 2.15-4.75 2.15 4.75 5.2 2.25-5.2 2.3zm0 29.75l-2.15-4.8-5.2-2.25 5.2-2.25 2.15-5.05 2.15 5.05 5.2 2.25-5.2 2.25zm-21.95-7.7l-4.6-9.85L2 23.95l10.05-4.5 4.6-9.8 4.65 9.8 10 4.5-10 4.5zm0-7.4l2.4-4.8 4.9-2.15-4.9-2.15-2.4-4.8-2.35 4.8-4.95 2.15 4.95 2.15zm0-6.95z"/></symbol><symbol viewBox="0 0 384 512" fill="currentColor" id="html-icon" xmlns="http://www.w3.org/2000/svg"><path d="M0 32l34.9 395.8L191.5 480l157.6-52.2L384 32H0zm308.2 127.9H124.4l4.1 49.4h175.6l-13.6 148.4-97.9 27v.3h-1.1l-98.7-27.3-6-75.8h47.7L138 320l53.5 14.5 53.7-14.5 6-62.2H84.3L71.5 112.2h241.1l-4.4 47.7z"/></symbol><symbol fill="currentColor" viewBox="0 0 512 512" id="illustrator-icon" xmlns="http://www.w3.org/2000/svg"><path d="M227.593 217.991l19.188 60.091h-62.627l18.825-60.091c4.346-14.48 7.964-31.493 11.582-45.611h.724c3.621 14.119 7.601 30.769 12.308 45.611zM511.5 85.667v340.667c0 46.842-38.325 85.167-85.167 85.167H85.667C38.825 511.5.5 473.175.5 426.333V85.667C.5 38.825 38.825.5 85.667.5h340.667C473.175.5 511.5 38.825 511.5 85.667zM324.246 380.885l-79.279-243.977h-56.83l-78.189 243.977h45.973l20.997-69.14h77.465l22.082 69.14h47.781zm75.274-176.288h-44.888v176.288h44.888V204.597zm2.532-49.229c-.362-13.756-9.772-24.252-24.977-24.252-14.842 0-24.976 10.496-24.976 24.252 0 13.395 9.772 23.891 24.614 23.891 15.566-.001 25.339-10.497 25.339-23.891z"/></symbol><symbol fill="currentColor" viewBox="0 0 512 512" id="jquery-icon" xmlns="http://www.w3.org/2000/svg"><path d="M499.161 364.63s-63.554 171.386-282.354 131.488c-3.443-.641-6.745-1.838-10.089-2.849-.782-.229-1.572-.479-2.354-.703a302.903 302.903 0 01-9.769-3.197c-.37-.129-.723-.25-1.098-.383a326.662 326.662 0 01-8.762-3.244c-.757-.295-1.51-.582-2.263-.89a273.273 273.273 0 01-9.277-3.859c-.565-.249-1.11-.499-1.684-.752a317.762 317.762 0 01-7.959-3.685c-.682-.346-1.368-.666-2.055-.99-.374-.187-.777-.374-1.16-.565-1.696-.848-3.352-1.729-5.023-2.604-1.289-.665-2.599-1.313-3.88-2a329.103 329.103 0 01-7.02-3.938c-.861-.491-1.73-.965-2.583-1.46a332.068 332.068 0 01-9.344-5.727c-.869-.557-1.729-1.147-2.586-1.722-2.004-1.297-4.009-2.595-5.972-3.95-.208-.142-.407-.291-.611-.437-.761-.516-1.484-1.044-2.241-1.593a266.52 266.52 0 01-6.15-4.408 512.55 512.55 0 01-2.932-2.229 321.13 321.13 0 01-5.481-4.284c-.902-.723-1.817-1.438-2.719-2.17a341.36 341.36 0 01-6.575-5.548c-.408-.357-.84-.707-1.256-1.081-.042-.017-.071-.05-.117-.088a271.49 271.49 0 01-7.236-6.591c-.719-.657-1.435-1.36-2.158-2.05a314.61 314.61 0 01-5.277-5.178c-.72-.707-1.431-1.422-2.121-2.138a323.508 323.508 0 01-6.616-6.97c-.079-.107-.158-.17-.253-.274-.038-.041-.092-.096-.129-.142a305.821 305.821 0 01-6.508-7.427 228.322 228.322 0 01-1.78-2.133 331.47 331.47 0 01-4.674-5.743 360.112 360.112 0 01-1.9-2.42 257.465 257.465 0 01-5.057-6.721c-.308-.424-.636-.84-.932-1.256a1.41 1.41 0 01-.158-.216 283.24 283.24 0 01-5.547-8.001c-.561-.824-1.089-1.672-1.63-2.521a240.738 240.738 0 01-3.826-5.988c-.648-1.031-1.264-2.066-1.888-3.103a243.51 243.51 0 01-3.298-5.655c-.611-1.073-1.214-2.121-1.805-3.223-.329-.582-.686-1.182-1.006-1.792-.562-1.016-1.069-2.075-1.618-3.111-.848-1.626-1.709-3.26-2.528-4.915C-6.655 275.1-12.294 190.5 32.95 125.471l35.314-44.789c-39.843 77.007-21.936 170.778 27.908 238.76 1.8 2.475 3.643 4.916 5.526 7.356.583.736 1.168 1.477 1.751 2.184a284.177 284.177 0 004.786 5.918c.583.686 1.152 1.359 1.747 2.066a252.343 252.343 0 006.646 7.564c.108.12.212.229.316.345a303.605 303.605 0 006.558 6.933c.69.698 1.393 1.389 2.096 2.088a206.2 206.2 0 005.344 5.235c.686.682 1.376 1.339 2.088 2.017a358.359 358.359 0 007.435 6.758c.262.229.532.44.773.652a336.406 336.406 0 007.074 5.96c.832.678 1.68 1.355 2.528 2.029a287.085 287.085 0 005.681 4.437c.911.699 1.846 1.41 2.791 2.108a342.403 342.403 0 006.288 4.55c.719.486 1.418 1.015 2.146 1.505a237.617 237.617 0 006.654 4.425c.84.558 1.672 1.14 2.52 1.681a337.537 337.537 0 009.357 5.73c.811.466 1.622.902 2.42 1.352a246.141 246.141 0 007.19 4.029c1.314.731 2.666 1.393 3.996 2.096 1.988 1.023 3.976 2.063 5.988 3.044.761.374 1.501.724 2.246 1.077a371.386 371.386 0 007.743 3.605c.616.267 1.214.545 1.834.811 3.032 1.327 6.096 2.6 9.186 3.817.794.316 1.589.62 2.387.937a295.645 295.645 0 008.508 3.156c.445.158.89.32 1.322.478a291.045 291.045 0 009.648 3.136c.827.258 1.655.508 2.503.757 3.318.981 6.616 2.042 10.018 2.812 89.773 20.431 184.517 2.083 237.895-67.46zM182.44 254.758c4.907 7.024 10.338 15.386 16.846 21.031 2.354 2.598 4.824 5.13 7.34 7.621.632.648 1.285 1.272 1.938 1.908a215.525 215.525 0 007.494 6.97c.108.079.204.188.308.263.029.033.054.041.075.074 2.845 2.487 5.781 4.887 8.758 7.244.662.508 1.318 1.036 1.988 1.552 2.99 2.291 6.039 4.545 9.166 6.69.096.066.17.134.266.2 1.376.956 2.782 1.846 4.175 2.761.674.433 1.31.898 1.983 1.306a185.394 185.394 0 006.795 4.167c.325.2.641.366.961.553a250.168 250.168 0 006.005 3.356c.698.391 1.414.74 2.129 1.114 1.389.724 2.786 1.468 4.2 2.171.212.1.433.199.637.287a199.91 199.91 0 008.762 4.079c.632.283 1.289.532 1.934.799a224.016 224.016 0 007.178 2.915c1.022.387 2.059.757 3.073 1.127 2.191.815 4.383 1.556 6.595 2.296 1.003.319 1.984.648 2.986.956 3.144.973 6.254 2.212 9.535 2.753C472.501 366.942 511.5 236.873 511.5 236.873c-35.16 50.633-103.243 74.791-175.897 55.936a209.508 209.508 0 01-9.56-2.77 96.802 96.802 0 01-2.883-.928 197.877 197.877 0 01-6.694-2.308c-1.011-.37-2.025-.74-3.02-1.123a228.945 228.945 0 01-7.198-2.902c-.653-.283-1.306-.533-1.942-.824a201.833 201.833 0 01-8.812-4.094c-1.493-.729-2.953-1.499-4.425-2.254l-2.549-1.312a213.673 213.673 0 01-5.594-3.154c-.437-.252-.894-.491-1.339-.755a228.56 228.56 0 01-6.77-4.134c-.687-.438-1.352-.915-2.038-1.366a239.846 239.846 0 01-4.392-2.902c-3.11-2.146-6.138-4.399-9.128-6.678-.69-.543-1.376-1.073-2.059-1.616-31.796-25.111-57-59.423-68.994-98.33-12.555-40.352-9.847-85.647 11.914-122.406l-26.735 37.738c-32.715 47.085-30.939 110.113-5.419 159.91 4.286 8.349 9.097 16.445 14.474 24.157zm178.06-58.252c1.393.52 2.782.981 4.191 1.458.616.189 1.231.401 1.851.584 1.988.626 3.963 1.352 6.018 1.738 93.284 18.023 118.58-47.869 125.317-57.566-22.165 31.91-59.405 39.57-105.111 28.481-3.605-.881-7.572-2.185-11.058-3.416a135.451 135.451 0 01-13.124-5.456 136.046 136.046 0 01-23.025-14.045c-40.891-31.029-66.291-90.221-39.61-138.425L291.51 29.76c-19.287 28.386-21.179 63.638-7.801 94.991 14.114 33.274 43.036 59.381 76.791 71.755z"/></symbol><symbol viewBox="0 0 448 512" fill="currentColor" id="js-icon" xmlns="http://www.w3.org/2000/svg"><path d="M448 96c0-35.3-28.7-64-64-64H64C28.7 32 0 60.7 0 96v320c0 35.3 28.7 64 64 64h320c35.3 0 64-28.7 64-64V96zM180.9 444.9c-33.7 0-53.2-17.4-63.2-38.5l34.3-20.7c6.6 11.7 12.6 21.6 27.1 21.6 13.8 0 22.6-5.4 22.6-26.5V237.7h42.1v143.7c0 43.6-25.6 63.5-62.9 63.5zm85.8-43l34.3-19.8c9 14.7 20.8 25.6 41.5 25.6 17.4 0 28.6-8.7 28.6-20.8 0-14.4-11.4-19.5-30.7-28l-10.5-4.5c-30.4-12.9-50.5-29.2-50.5-63.5 0-31.6 24.1-55.6 61.6-55.6 26.8 0 46 9.3 59.8 33.7L368 290c-7.2-12.9-15-18-27.1-18-12.3 0-20.1 7.8-20.1 18 0 12.6 7.8 17.7 25.9 25.6l10.5 4.5c35.8 15.3 55.9 31 55.9 66.2 0 37.8-29.8 58.6-69.7 58.6-39.1 0-64.4-18.6-76.7-43z"/></symbol><symbol viewBox="0 0 48 48" id="loadmore-icon" xmlns="http://www.w3.org/2000/svg"><path d="M11 40q-1.2 0-2.1-.9Q8 38.2 8 37v-7.15h3V37h26v-7.15h3V37q0 1.2-.9 2.1-.9.9-2.1.9zm13-7.65l-9.65-9.65 2.15-2.15 6 6V8h3v18.55l6-6 2.15 2.15z"/></symbol><symbol id="logo" viewBox="0 0 122.85 56.07" xmlns="http://www.w3.org/2000/svg"><defs><style>.bbcls-1{stroke-width:0}</style></defs><path class="bbcls-1" d="M64.61 12.37c0 2.61-1.01 5.5-3.04 8.67-2.03 3.17-5.28 6.57-9.76 10.21-1.4 1.17-3.21 2.47-5.43 3.92-2.22 1.45-4.67 2.91-7.35 4.4-2.68 1.49-5.52 2.96-8.5 4.41-2.99 1.44-5.98 2.73-9 3.84a76.601 76.601 0 01-8.75 2.69c-2.82.67-5.42 1.01-7.8 1.01-.33 0-.77-.01-1.33-.04-.56-.02-1.11-.1-1.65-.25-.54-.14-1-.33-1.4-.56-.4-.23-.6-.56-.6-.98 0-.47.26-.7.77-.7.28 0 .54.09.77.28.33.19.91.28 1.75.28.93 0 2.04-.09 3.33-.28 1.28-.19 2.51-.4 3.67-.63 1.17-.23 2.17-.46 3.01-.67.84-.21 1.28-.32 1.33-.32 2.29-.61 4.8-1.43 7.53-2.48s5.55-2.26 8.47-3.64c2.92-1.38 5.83-2.92 8.75-4.62 2.92-1.7 5.68-3.52 8.29-5.46 2.61-1.94 4.99-3.94 7.14-6.02 2.15-2.08 3.92-4.21 5.32-6.41.79-1.21 1.38-2.37 1.75-3.46.37-1.1.56-2.13.56-3.12 0-1.73-.55-3.23-1.64-4.51-1.1-1.28-2.57-2.34-4.41-3.18-1.84-.84-3.97-1.46-6.37-1.86-2.4-.4-4.91-.59-7.52-.59-2.47 0-4.97.17-7.49.52-2.52.35-4.92.86-7.21 1.54s-4.38 1.52-6.27 2.52c-1.89 1-3.46 2.13-4.72 3.39-.56.61-.96 1.13-1.19 1.58-.23.44-.35.85-.35 1.23 0 .56.19 1.04.56 1.43.37.4.78.76 1.22 1.08.44.33.85.63 1.23.91.37.28.56.58.56.91s-.14.57-.42.73c-.28.16-.56.25-.84.25-.42 0-.89-.13-1.4-.38-.51-.26-.98-.62-1.4-1.08-.42-.47-.78-1.03-1.08-1.68-.3-.65-.46-1.35-.46-2.1 0-1.26.51-2.61 1.54-4.06 1.02-1.45 2.91-2.92 5.66-4.41 1.49-.79 3.14-1.49 4.96-2.09s3.69-1.09 5.63-1.48C32.96.73 34.92.44 36.9.26c1.98-.18 3.93-.27 5.84-.27 1.31 0 2.75.07 4.33.21 1.58.14 3.18.38 4.79.73s3.18.82 4.72 1.4c1.54.58 2.9 1.33 4.09 2.24 1.19.91 2.14 2 2.87 3.29.72 1.28 1.08 2.79 1.08 4.51zm-30.66 4.5c.47-.61 1.13-1.55 2-2.83.86-1.28 1.8-2.57 2.8-3.85 1-1.28 1.98-2.4 2.94-3.36s1.76-1.43 2.42-1.43c.28 0 .52.12.73.35.21.23.31.47.31.7 0 .33-.14.64-.42.95-.28.3-.59.65-.94 1.05-.13.15-.47.53-1.12 1.29-.82.96-1.36 1.65-1.92 2.33-1.19 1.46-1.08 1.27-2.45 2.95-1.2 1.47-1.86 2.2-2.52 3.18-.28.42-.77 1.13-1.47 2.13s-1.49 2.14-2.38 3.4c-.89 1.26-1.8 2.6-2.73 4.03-.93 1.42-1.78 2.75-2.55 3.99-.77 1.24-1.4 2.35-1.89 3.33s-.73 1.66-.73 2.03c0 .23.09.35.28.35.28 0 .72-.23 1.33-.7.51-.37.93-.56 1.26-.56s.49.19.49.56c0 .28-.08.61-.25.98-.16.37-.41.74-.73 1.08-.33.35-.7.64-1.12.88-.42.23-.86.35-1.33.35-.72 0-1.3-.2-1.73-.59-.43-.4-.65-.95-.65-1.64 0-.89.28-1.98.83-3.29s1.25-2.68 2.1-4.13 1.76-2.91 2.74-4.38c.98-1.47 1.94-2.84 2.87-4.1.93-1.26 1.75-2.33 2.45-3.22.7-.89 1.17-1.49 1.4-1.82zM66.92 32.9c-1.49 1.07-3.03 1.61-4.62 1.61-.51 0-1.06-.06-1.65-.18-.58-.12-1.12-.3-1.61-.56-.49-.26-.91-.6-1.26-1.02-.35-.42-.52-.94-.52-1.55 0-.7.23-1.47.7-2.29.47-.82 1.05-1.59 1.75-2.29.7-.71 1.45-1.29 2.24-1.76.79-.47 1.52-.71 2.17-.71.75 0 1.34.35 1.78 1.06.44.71.67 1.39.67 2.05 0 .57-.21 1.08-.63 1.55-.19.19-.44.41-.77.67s-.68.51-1.05.74c-.37.24-.73.47-1.08.71-.35.24-.62.45-.8.64-.33.28-.49.54-.49.78s.21.35.63.35c.56 0 1.21-.23 1.96-.7 1.35-.56 2.6-1.25 3.74-2.06 1.14-.82 2.32-1.65 3.54-2.49.42-.28.89-.42 1.4-.42.56 0 .84.16.84.49 0 .19-.12.43-.35.73-.23.3-.65.64-1.26 1.02-.93.65-1.83 1.26-2.7 1.82-.86.56-1.74 1.17-2.62 1.82zm-6.37-3.64c0 .33.14.49.42.49.23 0 .54-.08.91-.24.37-.16.72-.37 1.05-.63.33-.26.61-.54.84-.84.23-.3.35-.59.35-.88 0-.47-.21-.7-.63-.7-.23 0-.51.11-.84.32-.33.21-.64.47-.94.77s-.57.62-.81.95c-.23.33-.35.58-.35.77z"/><path class="bbcls-1" d="M72.03 29.12c-.09-.51-.26-1.06-.49-1.64-.23-.58-.35-1.08-.35-1.5 0-.28.09-.54.28-.77.19-.23.42-.35.7-.35.42 0 .77.15 1.05.46.28.3.5.67.67 1.08.16.42.28.85.35 1.29.07.44.11.83.11 1.16v.45c0 .16.04.27.14.32h.14c.23 0 .4-.05.49-.14l.28-.28c.74-.75 1.32-1.38 1.71-1.89.39-.51.78-1.33 1.15-2.45.19-.56.47-1 .84-1.33.37-.33.77-.49 1.19-.49.33 0 .65.11.98.32s.49.5.49.88c0 .33-.11.67-.31 1.01-.21.35-.46.69-.74 1.01-.28.33-.57.62-.88.88-.3.26-.52.46-.66.6-.93.75-1.75 1.59-2.45 2.52-.7.93-1.38 1.89-2.03 2.87-.09.09-.17.21-.24.35-.07.14-.15.26-.25.35-.19.23-.37.46-.56.67-.19.21-.4.31-.63.31-.33 0-.57-.1-.73-.31-.16-.21-.25-.46-.25-.74 0-.7.02-1.25.07-1.64s.07-.81.07-1.23c0-.23-.01-.49-.04-.77s-.06-.61-.11-.98zm16.38.21c-1.07.84-1.88 1.52-2.41 2.03-.54.51-.97 1.04-1.29 1.58-.33.54-.63 1.17-.91 1.89s-.65 1.69-1.12 2.91a47.08 47.08 0 01-3.04 6.3 91.374 91.374 0 01-3.74 5.88c-.19.28-.57.55-1.15.81s-1.13.38-1.65.38c-.46 0-.86-.2-1.19-.59-.33-.4-.49-.83-.49-1.3 0-.7.22-1.71.67-3.04s.96-2.72 1.54-4.17c.58-1.45 1.18-2.83 1.79-4.17.61-1.33 1.1-2.32 1.47-2.97 1.63-2.94 3.39-5.76 5.29-8.47 1.89-2.71 3.81-5.39 5.77-8.05.12-.1.44-.32.83-.28.51.06.9.58 1 1 .18.75-.52 1.25-2.11 3.33-.39.52-.8 1.09-1.61 2.24-.56.79-1.07 1.54-1.54 2.24-.47.7-.86 1.32-1.19 1.85-.33.54-.49.88-.49 1.01 0 .23.08.4.25.49.16.09.34.14.52.14.33 0 .56-.07.7-.21.04-.05.27-.2.66-.45s.8-.53 1.22-.81c.42-.28 1-.65 1.75-1.12.37-.28.75-.49 1.12-.63.37-.14.68-.21.91-.21.28 0 .42.09.42.28 0 .09-.08.25-.25.46s-.36.42-.59.63c-.23.21-.46.42-.67.63-.21.21-.36.34-.46.38zm-6.86 3.08c-.14-.05-.4.22-.77.81-.38.58-.78 1.26-1.22 2.03-.44.77-.86 1.52-1.26 2.24-.39.72-.66 1.2-.8 1.43-.14.23-.37.75-.7 1.54a78.904 78.904 0 00-1.97 5.28c-.28.86-.42 1.46-.42 1.79.14 0 .43-.28.88-.84.45-.56.95-1.28 1.51-2.17.56-.89 1.14-1.89 1.75-3.01a85.6 85.6 0 001.68-3.25c.51-1.05.93-2.03 1.26-2.94s.49-1.62.49-2.13c0-.42-.14-.68-.42-.77z"/><path class="bbcls-1" d="M98.07 29.37c-1.07.33-1.98.75-2.73 1.27s-1.42 1.02-2.03 1.52c-.61.49-1.21.92-1.82 1.27-.61.35-1.28.53-2.03.53s-1.46-.18-2.13-.53c-.68-.35-1.02-.98-1.02-1.87 0-.52.14-1.1.42-1.76.38-.94.84-1.8 1.4-2.57.56-.77 1.1-1.56 1.61-2.36.42-.61.96-.92 1.61-.92.56.09.91.33 1.05.7.14.37.35.51.63.42.23-.09.44-.27.63-.53s.42-.43.7-.52c.46-.09.81-.14 1.05-.14.28 0 .55.07.8.21.26.14.46.4.6.77.23.61.36 1.15.38 1.62.02.47.27.71.73.71.42-.05.79-.08 1.12-.11.33-.02.63-.04.91-.04.7 0 1.07.21 1.12.63.09.47-.12.79-.63.95-.52.16-1.31.41-2.38.74zm-4.06-.85c0-.47-.1-.77-.31-.89s-.46-.19-.73-.21c-.28-.02-.54-.07-.77-.14-.23-.07-.38-.3-.42-.67 0-.05-.06-.07-.18-.07h-.31c-.52.76-.99 1.46-1.44 2.09s-.88 1.29-1.29 1.95c-.14.28-.21.5-.21.64 0 .28.28.43.84.43 1.07-.05 1.97-.35 2.7-.92.72-.57 1.41-1.21 2.07-1.92l.07-.28z"/><path class="bbcls-1" d="M103.81 32.48c-.93.96-1.75 1.63-2.45 2.01-.7.38-1.28.55-1.75.51-.65-.05-1.11-.24-1.36-.59-.26-.35-.39-.8-.39-1.37 0-.79.25-1.76.74-2.9s1.11-2.25 1.86-3.33c.23-.33.65-.91 1.26-1.75s1.3-1.79 2.1-2.83c.79-1.05 1.63-2.16 2.52-3.33a94.02 94.02 0 012.52-3.18c.79-.96 1.49-1.74 2.1-2.35s1.03-.91 1.26-.91c.19 0 .37.07.56.21.19.14.28.3.28.49l-10.64 14.3c-.14.14-.35.41-.63.8-.28.4-.55.84-.8 1.33-.26.49-.48.97-.66 1.43-.19.46-.28.84-.28 1.12 0 .37.19.56.56.56s1.14-.53 2.31-1.58c1.17-1.05 2.47-2.23 3.92-3.54.47-.42.89-.63 1.26-.63.28 0 .42.14.42.42 0 .37-.21.72-.63 1.05-.28.23-.63.55-1.05.95-.42.4-.82.8-1.19 1.23-.38.42-.74.8-1.09 1.15-.35.35-.59.6-.73.74z"/><path class="bbcls-1" d="M113.61 28.21c.47-.42.92-.73 1.37-.94s.8-.32 1.09-.32c.32 0 .49.12.49.35 0 .42-.47.96-1.4 1.61-.52.33-1.06.83-1.65 1.5-.58.68-1.19 1.35-1.82 2.03-.63.68-1.26 1.27-1.89 1.79-.63.51-1.25.77-1.86.77-.78 0-1.43-.33-1.95-.98-.52-.65-.78-1.35-.78-2.1 0-.37.15-.94.44-1.71.29-.77.64-1.54 1.05-2.31.41-.77.87-1.45 1.38-2.03.51-.58.98-.88 1.4-.88.32 0 .57.15.73.46.16.3.24.64.24 1.01 0 .56-.16 1.05-.49 1.47-.14.14-.36.36-.66.67-.3.3-.6.62-.88.94-.28.33-.53.65-.73.98-.21.33-.32.58-.32.77 0 .28.11.54.32.77.21.23.43.35.66.35s.42-.07.56-.21l4.69-3.99zm-1.33-4.62c-.23 0-.46-.11-.66-.34-.21-.23-.32-.45-.32-.68 0-.36.14-.67.42-.92.28-.25.61-.37.98-.37.33 0 .72.08 1.19.24.47.16.7.42.7.78-.09.27-.41.55-.95.85-.54.29-.99.44-1.37.44z"/><path class="bbcls-1" d="M121.74 30.07c-.6.85-1.19 1.35-2.05 2.09-.13.11-.88.72-1.82 1.27-.61.35-1.29.53-2.03.53s-1.46-.18-2.13-.53c-.68-.35-1.02-.98-1.02-1.87 0-.52.14-1.1.42-1.76.37-.94.84-1.8 1.4-2.57.56-.77 1.1-1.56 1.61-2.36.42-.61.96-.92 1.61-.92.56.09.91.33 1.05.7.14.37.35.51.63.42.23-.09.44-.27.63-.53s.42-.43.7-.52c.29-.15.69-.28 1.05-.14.65.25.8 1.24.95 2.2.08.56.18 1.19 0 2-.19.85-.58 1.4-1 2zm-1.35-1.55c0-.47-.11-.77-.31-.89a1.73 1.73 0 00-.74-.21c-.28-.02-.54-.07-.77-.14-.23-.07-.37-.3-.42-.67 0-.05-.06-.07-.18-.07h-.31c-.51.76-.99 1.46-1.44 2.09s-.88 1.29-1.29 1.95c-.14.28-.21.5-.21.64 0 .28.28.43.84.43 1.07-.05 1.97-.35 2.7-.92.72-.57 1.41-1.21 2.06-1.92l.07-.28z"/></symbol><symbol fill="currentColor" viewBox="0 0 512 512" id="photoshop-icon" xmlns="http://www.w3.org/2000/svg"><path d="M426.333.5H85.667C38.825.5.5 38.825.5 85.667v340.667c0 46.842 38.325 85.167 85.167 85.167h340.667c46.842 0 85.167-38.325 85.167-85.167V85.667C511.5 38.825 473.175.5 426.333.5zM245.329 260.524c-17.736 17.736-45.611 26.065-77.103 26.065-8.326 0-15.927-.365-21.72-1.451v91.945h-44.159v-240.72c15.927-2.895 38.009-5.069 68.05-5.069 32.582 0 56.473 6.878 72.039 19.911 14.48 11.947 23.89 31.131 23.89 53.936-.001 23.168-7.24 42.351-20.997 55.383zm92.652 120.182c-21.358 0-40.542-5.069-53.574-12.31l8.687-32.216c10.135 6.154 29.322 12.671 45.249 12.671 19.545 0 28.236-7.964 28.236-19.549 0-11.943-7.239-18.099-28.96-25.7-34.391-11.947-48.866-30.769-48.505-51.403 0-31.131 25.7-55.383 66.604-55.383 19.549 0 36.562 5.069 46.695 10.496l-8.687 31.493c-7.602-4.342-21.721-10.135-37.285-10.135-15.928 0-24.615 7.602-24.615 18.46 0 11.224 8.326 16.655 30.77 24.618 31.854 11.582 46.696 27.871 47.058 53.937-.001 31.854-24.976 55.021-71.673 55.021zM221.8 206.95c0 28.598-20.273 44.887-53.574 44.887-9.049 0-16.289-.362-21.72-1.809v-82.534c4.708-1.085 13.395-2.171 25.704-2.171 30.769 0 49.59 14.48 49.59 41.627z"/></symbol><symbol viewBox="0 0 512 512" fill="currentColor" id="react-icon" xmlns="http://www.w3.org/2000/svg"><path d="M418.2 177.2c-5.4-1.8-10.8-3.5-16.2-5.1.9-3.7 1.7-7.4 2.5-11.1 12.3-59.6 4.2-107.5-23.1-123.3-26.3-15.1-69.2.6-112.6 38.4-4.3 3.7-8.5 7.6-12.5 11.5-2.7-2.6-5.5-5.2-8.3-7.7-45.5-40.4-91.1-57.4-118.4-41.5-26.2 15.2-34 60.3-23 116.7 1.1 5.6 2.3 11.1 3.7 16.7-6.4 1.8-12.7 3.8-18.6 5.9C38.3 196.2 0 225.4 0 255.6c0 31.2 40.8 62.5 96.3 81.5 4.5 1.5 9 3 13.6 4.3-1.5 6-2.8 11.9-4 18-10.5 55.5-2.3 99.5 23.9 114.6 27 15.6 72.4-.4 116.6-39.1 3.5-3.1 7-6.3 10.5-9.7 4.4 4.3 9 8.4 13.6 12.4 42.8 36.8 85.1 51.7 111.2 36.6 27-15.6 35.8-62.9 24.4-120.5-.9-4.4-1.9-8.9-3-13.5 3.2-.9 6.3-1.9 9.4-2.9 57.7-19.1 99.5-50 99.5-81.7 0-30.3-39.4-59.7-93.8-78.4zM282.9 92.3c37.2-32.4 71.9-45.1 87.7-36 16.9 9.7 23.4 48.9 12.8 100.4-.7 3.4-1.4 6.7-2.3 10-22.2-5-44.7-8.6-67.3-10.6-13-18.6-27.2-36.4-42.6-53.1 3.9-3.7 7.7-7.2 11.7-10.7zM167.2 307.5c5.1 8.7 10.3 17.4 15.8 25.9-15.6-1.7-31.1-4.2-46.4-7.5 4.4-14.4 9.9-29.3 16.3-44.5 4.6 8.8 9.3 17.5 14.3 26.1zm-30.3-120.3c14.4-3.2 29.7-5.8 45.6-7.8-5.3 8.3-10.5 16.8-15.4 25.4-4.9 8.5-9.7 17.2-14.2 26-6.3-14.9-11.6-29.5-16-43.6zm27.4 68.9c6.6-13.8 13.8-27.3 21.4-40.6s15.8-26.2 24.4-38.9c15-1.1 30.3-1.7 45.9-1.7s31 .6 45.9 1.7c8.5 12.6 16.6 25.5 24.3 38.7s14.9 26.7 21.7 40.4c-6.7 13.8-13.9 27.4-21.6 40.8-7.6 13.3-15.7 26.2-24.2 39-14.9 1.1-30.4 1.6-46.1 1.6s-30.9-.5-45.6-1.4c-8.7-12.7-16.9-25.7-24.6-39s-14.8-26.8-21.5-40.6zm180.6 51.2c5.1-8.8 9.9-17.7 14.6-26.7 6.4 14.5 12 29.2 16.9 44.3-15.5 3.5-31.2 6.2-47 8 5.4-8.4 10.5-17 15.5-25.6zm14.4-76.5c-4.7-8.8-9.5-17.6-14.5-26.2-4.9-8.5-10-16.9-15.3-25.2 16.1 2 31.5 4.7 45.9 8-4.6 14.8-10 29.2-16.1 43.4zM256.2 118.3c10.5 11.4 20.4 23.4 29.6 35.8-19.8-.9-39.7-.9-59.5 0 9.8-12.9 19.9-24.9 29.9-35.8zM140.2 57c16.8-9.8 54.1 4.2 93.4 39 2.5 2.2 5 4.6 7.6 7-15.5 16.7-29.8 34.5-42.9 53.1-22.6 2-45 5.5-67.2 10.4-1.3-5.1-2.4-10.3-3.5-15.5-9.4-48.4-3.2-84.9 12.6-94zm-24.5 263.6c-4.2-1.2-8.3-2.5-12.4-3.9-21.3-6.7-45.5-17.3-63-31.2-10.1-7-16.9-17.8-18.8-29.9 0-18.3 31.6-41.7 77.2-57.6 5.7-2 11.5-3.8 17.3-5.5 6.8 21.7 15 43 24.5 63.6-9.6 20.9-17.9 42.5-24.8 64.5zm116.6 98c-16.5 15.1-35.6 27.1-56.4 35.3-11.1 5.3-23.9 5.8-35.3 1.3-15.9-9.2-22.5-44.5-13.5-92 1.1-5.6 2.3-11.2 3.7-16.7 22.4 4.8 45 8.1 67.9 9.8 13.2 18.7 27.7 36.6 43.2 53.4-3.2 3.1-6.4 6.1-9.6 8.9zm24.5-24.3c-10.2-11-20.4-23.2-30.3-36.3 9.6.4 19.5.6 29.5.6 10.3 0 20.4-.2 30.4-.7-9.2 12.7-19.1 24.8-29.6 36.4zm130.7 30c-.9 12.2-6.9 23.6-16.5 31.3-15.9 9.2-49.8-2.8-86.4-34.2-4.2-3.6-8.4-7.5-12.7-11.5 15.3-16.9 29.4-34.8 42.2-53.6 22.9-1.9 45.7-5.4 68.2-10.5 1 4.1 1.9 8.2 2.7 12.2 4.9 21.6 5.7 44.1 2.5 66.3zm18.2-107.5c-2.8.9-5.6 1.8-8.5 2.6-7-21.8-15.6-43.1-25.5-63.8 9.6-20.4 17.7-41.4 24.5-62.9 5.2 1.5 10.2 3.1 15 4.7 46.6 16 79.3 39.8 79.3 58 0 19.6-34.9 44.9-84.8 61.4zm-149.7-15c25.3 0 45.8-20.5 45.8-45.8s-20.5-45.8-45.8-45.8c-25.3 0-45.8 20.5-45.8 45.8s20.5 45.8 45.8 45.8z"/></symbol><symbol viewBox="0 0 640 512" fill="currentColor" id="sass-icon" xmlns="http://www.w3.org/2000/svg"><path d="M301.8 378.9c-.3.6-.6 1.1 0 0zm249.1-87a131.2 131.2 0 00-58 13.5c-5.9-11.9-12-22.3-13-30.1-1.2-9.1-2.5-14.5-1.1-25.3s7.7-26.1 7.6-27.2-1.4-6.6-14.3-6.7-24 2.5-25.3 5.9a122.8 122.8 0 00-5.3 19.1c-2.3 11.7-25.8 53.5-39.1 75.3-4.4-8.5-8.1-16-8.9-22-1.2-9.1-2.5-14.5-1.1-25.3s7.7-26.1 7.6-27.2-1.4-6.6-14.3-6.7-24 2.5-25.3 5.9-2.7 11.4-5.3 19.1-33.9 77.3-42.1 95.4c-4.2 9.2-7.8 16.6-10.4 21.6-.4.8-.7 1.3-.9 1.7.3-.5.5-1 .5-.8-2.2 4.3-3.5 6.7-3.5 6.7v.1c-1.7 3.2-3.6 6.1-4.5 6.1-.6 0-1.9-8.4.3-19.9 4.7-24.2 15.8-61.8 15.7-63.1-.1-.7 2.1-7.2-7.3-10.7-9.1-3.3-12.4 2.2-13.2 2.2s-1.4 2-1.4 2 10.1-42.4-19.4-42.4c-18.4 0-44 20.2-56.6 38.5-7.9 4.3-25 13.6-43 23.5-6.9 3.8-14 7.7-20.7 11.4-.5-.5-.9-1-1.4-1.5-35.8-38.2-101.9-65.2-99.1-116.5 1-18.7 7.5-67.8 127.1-127.4 98-48.8 176.4-35.4 189.8-5.6 19.4 42.5-41.9 121.6-143.7 133-38.8 4.3-59.2-10.7-64.3-16.3-5.3-5.9-6.1-6.2-8.1-5.1-3.3 1.8-1.2 7 0 10.1 3 7.9 15.5 21.9 36.8 28.9 18.7 6.1 64.2 9.5 119.2-11.8 61.8-23.8 109.9-90.1 95.8-145.6C386.5 18.3 293-.2 204.6 31.2 151.9 49.9 94.9 79.3 53.9 117.6 5.2 163.2-2.6 202.9.6 219.5c11.4 58.9 92.6 97.3 125.1 125.7-1.6.9-3.1 1.7-4.5 2.5-16.3 8.1-78.2 40.5-93.7 74.7-17.5 38.8 2.9 66.6 16.3 70.4 41.8 11.6 84.6-9.3 107.6-43.6s20.2-79.1 9.6-99.5c-.1-.3-.3-.5-.4-.8 4.2-2.5 8.5-5 12.8-7.5 8.3-4.9 16.4-9.4 23.5-13.3-4 10.8-6.9 23.8-8.4 42.6-1.8 22 7.3 50.5 19.1 61.7 5.2 4.9 11.5 5 15.4 5 13.8 0 20-11.4 26.9-25 8.5-16.6 16-35.9 16-35.9s-9.4 52.2 16.3 52.2c9.4 0 18.8-12.1 23-18.3v.1s.2-.4.7-1.2c1-1.5 1.5-2.4 1.5-2.4v-.3c3.8-6.5 12.1-21.4 24.6-46 16.2-31.8 31.7-71.5 31.7-71.5a201.2 201.2 0 006.2 25.8c2.8 9.5 8.7 19.9 13.4 30-3.8 5.2-6.1 8.2-6.1 8.2a.3.3 0 00.1.2c-3 4-6.4 8.3-9.9 12.5-12.8 15.2-28 32.6-30 37.6-2.4 5.9-1.8 10.3 2.8 13.7 3.4 2.6 9.4 3 15.7 2.5 11.5-.8 19.6-3.6 23.5-5.4a82.2 82.2 0 0020.2-10.6c12.5-9.2 20.1-22.4 19.4-39.8-.4-9.6-3.5-19.2-7.3-28.2 1.1-1.6 2.3-3.3 3.4-5 19.7-28.9 35-60.6 35-60.6a201.2 201.2 0 006.2 25.8c2.4 8.1 7.1 17 11.4 25.7-18.6 15.1-30.1 32.6-34.1 44.1-7.4 21.3-1.6 30.9 9.3 33.1 4.9 1 11.9-1.3 17.1-3.5a79.5 79.5 0 0021.6-11.1c12.5-9.2 24.6-22.1 23.8-39.6-.3-7.9-2.5-15.8-5.4-23.4 15.7-6.6 36.1-10.2 62.1-7.2 55.7 6.5 66.6 41.3 64.5 55.8s-13.8 22.6-17.7 25-5.1 3.3-4.8 5.1c.5 2.6 2.3 2.5 5.6 1.9 4.6-.8 29.2-11.8 30.3-38.7 1.6-34-31.1-71.4-89-71.1zM121.7 436.6c-18.4 20.1-44.2 27.7-55.3 21.3C54.6 451 59.3 421.4 82 400c13.8-13 31.6-25 43.4-32.4 2.7-1.6 6.6-4 11.4-6.9.8-.5 1.2-.7 1.2-.7.9-.6 1.9-1.1 2.9-1.7 8.3 30.4.3 57.2-19.1 78.3zm134.4-91.4c-6.4 15.7-19.9 55.7-28.1 53.6-7-1.8-11.3-32.3-1.4-62.3 5-15.1 15.6-33.1 21.9-40.1 10.1-11.3 21.2-14.9 23.8-10.4 3.5 5.9-12.2 49.4-16.2 59.2zm111 53c-2.7 1.4-5.2 2.3-6.4 1.6-.9-.5 1.1-2.4 1.1-2.4s13.9-14.9 19.4-21.7c3.2-4 6.9-8.7 10.9-13.9 0 .5.1 1 .1 1.6-.1 17.9-17.3 30-25.1 34.8zm85.6-19.5c-2-1.4-1.7-6.1 5-20.7 2.6-5.7 8.6-15.3 19-24.5a36.2 36.2 0 011.9 10.8c-.1 22.5-16.2 30.9-25.9 34.4z"/></symbol><symbol viewBox="0 0 576 512" id="skill-bootstrap-icon" xmlns="http://www.w3.org/2000/svg"><!--! Font Awesome Pro 6.2.1 by @fontawesome - https://fontawesome.com License - https://fontawesome.com/license (Commercial License) Copyright 2022 Fonticons, Inc.--><path d="M333.5 201.4c0-22.1-15.6-34.3-43-34.3h-50.4v71.2h42.5c32.8-.1 50.9-13.3 50.9-36.9zM517 188.6c-9.5-30.9-10.9-68.8-9.8-98.1C508.3 60 484.5 32 452.5 32H123.7C91.6 32 67.9 60.1 69 90.5c1 29.3-.3 67.2-9.8 98.1-9.6 31-25.7 50.6-52.2 53.1v28.5c26.4 2.5 42.6 22.1 52.2 53.1 9.5 30.9 10.9 68.8 9.8 98.1-1.1 30.5 22.7 58.5 54.7 58.5h328.7c32.1 0 55.8-28.1 54.7-58.5-1-29.3.3-67.2 9.8-98.1 9.6-31 25.7-50.6 52.1-53.1v-28.5c-26.3-2.5-42.5-22.1-52-53.1zM300.2 375.1h-97.9V136.8h97.4c43.3 0 71.7 23.4 71.7 59.4 0 25.3-19.1 47.9-43.5 51.8v1.3c33.2 3.6 55.5 26.6 55.5 58.3 0 42.1-31.3 67.5-83.2 67.5zm-10-108.7h-50.1v78.4h52.3c34.2 0 52.3-13.7 52.3-39.5 0-25.7-18.6-38.9-54.5-38.9z"/></symbol><symbol viewBox="0 0 384 512" id="skill-css-icon" xmlns="http://www.w3.org/2000/svg"><!--! Font Awesome Pro 6.2.1 by @fontawesome - https://fontawesome.com License - https://fontawesome.com/license (Commercial License) Copyright 2022 Fonticons, Inc.--><path d="M0 32l34.9 395.8L192 480l157.1-52.2L384 32H0zm313.1 80l-4.8 47.3L193 208.6l-.3.1h111.5l-12.8 146.6-98.2 28.7-98.8-29.2-6.4-73.9h48.9l3.2 38.3 52.6 13.3 54.7-15.4 3.7-61.6-166.3-.5v-.1l-.2.1-3.6-46.3L193.1 162l6.5-2.7H76.7L70.9 112h242.2z"/></symbol><symbol viewBox="0 0 384 512" id="skill-html-icon" xmlns="http://www.w3.org/2000/svg"><!--! Font Awesome Pro 6.2.1 by @fontawesome - https://fontawesome.com License - https://fontawesome.com/license (Commercial License) Copyright 2022 Fonticons, Inc.--><path d="M0 32l34.9 395.8L191.5 480l157.6-52.2L384 32H0zm308.2 127.9H124.4l4.1 49.4h175.6l-13.6 148.4-97.9 27v.3h-1.1l-98.7-27.3-6-75.8h47.7L138 320l53.5 14.5 53.7-14.5 6-62.2H84.3L71.5 112.2h241.1l-4.4 47.7z"/></symbol><symbol viewBox="0 0 448 512" id="skill-js-icon" xmlns="http://www.w3.org/2000/svg"><!--! Font Awesome Pro 6.2.1 by @fontawesome - https://fontawesome.com License - https://fontawesome.com/license (Commercial License) Copyright 2022 Fonticons, Inc.--><path d="M400 32H48C21.5 32 0 53.5 0 80v352c0 26.5 21.5 48 48 48h352c26.5 0 48-21.5 48-48V80c0-26.5-21.5-48-48-48zM243.8 381.4c0 43.6-25.6 63.5-62.9 63.5-33.7 0-53.2-17.4-63.2-38.5l34.3-20.7c6.6 11.7 12.6 21.6 27.1 21.6 13.8 0 22.6-5.4 22.6-26.5V237.7h42.1v143.7zm99.6 63.5c-39.1 0-64.4-18.6-76.7-43l34.3-19.8c9 14.7 20.8 25.6 41.5 25.6 17.4 0 28.6-8.7 28.6-20.8 0-14.4-11.4-19.5-30.7-28l-10.5-4.5c-30.4-12.9-50.5-29.2-50.5-63.5 0-31.6 24.1-55.6 61.6-55.6 26.8 0 46 9.3 59.8 33.7L368 290c-7.2-12.9-15-18-27.1-18-12.3 0-20.1 7.8-20.1 18 0 12.6 7.8 17.7 25.9 25.6l10.5 4.5c35.8 15.3 55.9 31 55.9 66.2 0 37.8-29.8 58.6-69.7 58.6z"/></symbol><symbol viewBox="0 0 512 512" id="skill-react-icon" xmlns="http://www.w3.org/2000/svg"><!--! Font Awesome Pro 6.2.1 by @fontawesome - https://fontawesome.com License - https://fontawesome.com/license (Commercial License) Copyright 2022 Fonticons, Inc.--><path d="M418.2 177.2c-5.4-1.8-10.8-3.5-16.2-5.1.9-3.7 1.7-7.4 2.5-11.1 12.3-59.6 4.2-107.5-23.1-123.3-26.3-15.1-69.2.6-112.6 38.4-4.3 3.7-8.5 7.6-12.5 11.5-2.7-2.6-5.5-5.2-8.3-7.7-45.5-40.4-91.1-57.4-118.4-41.5-26.2 15.2-34 60.3-23 116.7 1.1 5.6 2.3 11.1 3.7 16.7-6.4 1.8-12.7 3.8-18.6 5.9C38.3 196.2 0 225.4 0 255.6c0 31.2 40.8 62.5 96.3 81.5 4.5 1.5 9 3 13.6 4.3-1.5 6-2.8 11.9-4 18-10.5 55.5-2.3 99.5 23.9 114.6 27 15.6 72.4-.4 116.6-39.1 3.5-3.1 7-6.3 10.5-9.7 4.4 4.3 9 8.4 13.6 12.4 42.8 36.8 85.1 51.7 111.2 36.6 27-15.6 35.8-62.9 24.4-120.5-.9-4.4-1.9-8.9-3-13.5 3.2-.9 6.3-1.9 9.4-2.9 57.7-19.1 99.5-50 99.5-81.7 0-30.3-39.4-59.7-93.8-78.4zM282.9 92.3c37.2-32.4 71.9-45.1 87.7-36 16.9 9.7 23.4 48.9 12.8 100.4-.7 3.4-1.4 6.7-2.3 10-22.2-5-44.7-8.6-67.3-10.6-13-18.6-27.2-36.4-42.6-53.1 3.9-3.7 7.7-7.2 11.7-10.7zM167.2 307.5c5.1 8.7 10.3 17.4 15.8 25.9-15.6-1.7-31.1-4.2-46.4-7.5 4.4-14.4 9.9-29.3 16.3-44.5 4.6 8.8 9.3 17.5 14.3 26.1zm-30.3-120.3c14.4-3.2 29.7-5.8 45.6-7.8-5.3 8.3-10.5 16.8-15.4 25.4-4.9 8.5-9.7 17.2-14.2 26-6.3-14.9-11.6-29.5-16-43.6zm27.4 68.9c6.6-13.8 13.8-27.3 21.4-40.6s15.8-26.2 24.4-38.9c15-1.1 30.3-1.7 45.9-1.7s31 .6 45.9 1.7c8.5 12.6 16.6 25.5 24.3 38.7s14.9 26.7 21.7 40.4c-6.7 13.8-13.9 27.4-21.6 40.8-7.6 13.3-15.7 26.2-24.2 39-14.9 1.1-30.4 1.6-46.1 1.6s-30.9-.5-45.6-1.4c-8.7-12.7-16.9-25.7-24.6-39s-14.8-26.8-21.5-40.6zm180.6 51.2c5.1-8.8 9.9-17.7 14.6-26.7 6.4 14.5 12 29.2 16.9 44.3-15.5 3.5-31.2 6.2-47 8 5.4-8.4 10.5-17 15.5-25.6zm14.4-76.5c-4.7-8.8-9.5-17.6-14.5-26.2-4.9-8.5-10-16.9-15.3-25.2 16.1 2 31.5 4.7 45.9 8-4.6 14.8-10 29.2-16.1 43.4zM256.2 118.3c10.5 11.4 20.4 23.4 29.6 35.8-19.8-.9-39.7-.9-59.5 0 9.8-12.9 19.9-24.9 29.9-35.8zM140.2 57c16.8-9.8 54.1 4.2 93.4 39 2.5 2.2 5 4.6 7.6 7-15.5 16.7-29.8 34.5-42.9 53.1-22.6 2-45 5.5-67.2 10.4-1.3-5.1-2.4-10.3-3.5-15.5-9.4-48.4-3.2-84.9 12.6-94zm-24.5 263.6c-4.2-1.2-8.3-2.5-12.4-3.9-21.3-6.7-45.5-17.3-63-31.2-10.1-7-16.9-17.8-18.8-29.9 0-18.3 31.6-41.7 77.2-57.6 5.7-2 11.5-3.8 17.3-5.5 6.8 21.7 15 43 24.5 63.6-9.6 20.9-17.9 42.5-24.8 64.5zm116.6 98c-16.5 15.1-35.6 27.1-56.4 35.3-11.1 5.3-23.9 5.8-35.3 1.3-15.9-9.2-22.5-44.5-13.5-92 1.1-5.6 2.3-11.2 3.7-16.7 22.4 4.8 45 8.1 67.9 9.8 13.2 18.7 27.7 36.6 43.2 53.4-3.2 3.1-6.4 6.1-9.6 8.9zm24.5-24.3c-10.2-11-20.4-23.2-30.3-36.3 9.6.4 19.5.6 29.5.6 10.3 0 20.4-.2 30.4-.7-9.2 12.7-19.1 24.8-29.6 36.4zm130.7 30c-.9 12.2-6.9 23.6-16.5 31.3-15.9 9.2-49.8-2.8-86.4-34.2-4.2-3.6-8.4-7.5-12.7-11.5 15.3-16.9 29.4-34.8 42.2-53.6 22.9-1.9 45.7-5.4 68.2-10.5 1 4.1 1.9 8.2 2.7 12.2 4.9 21.6 5.7 44.1 2.5 66.3zm18.2-107.5c-2.8.9-5.6 1.8-8.5 2.6-7-21.8-15.6-43.1-25.5-63.8 9.6-20.4 17.7-41.4 24.5-62.9 5.2 1.5 10.2 3.1 15 4.7 46.6 16 79.3 39.8 79.3 58 0 19.6-34.9 44.9-84.8 61.4zm-149.7-15c25.3 0 45.8-20.5 45.8-45.8s-20.5-45.8-45.8-45.8c-25.3 0-45.8 20.5-45.8 45.8s20.5 45.8 45.8 45.8z"/></symbol><symbol viewBox="0 0 384 512" id="softskill-figma-icon" xmlns="http://www.w3.org/2000/svg"><!--! Font Awesome Pro 6.2.1 by @fontawesome - https://fontawesome.com License - https://fontawesome.com/license (Commercial License) Copyright 2022 Fonticons, Inc.--><path d="M14 95.792C14 42.888 56.888 0 109.793 0h164.368c52.905 0 95.793 42.888 95.793 95.792 0 33.5-17.196 62.984-43.243 80.105 26.047 17.122 43.243 46.605 43.243 80.105 0 52.905-42.888 95.793-95.793 95.793h-2.08c-24.802 0-47.403-9.426-64.415-24.891v88.263c0 53.61-44.009 96.833-97.357 96.833C57.536 512 14 469.243 14 416.207c0-33.498 17.195-62.98 43.24-80.102C31.193 318.983 14 289.5 14 256.002c0-33.5 17.196-62.983 43.242-80.105C31.197 158.776 14 129.292 14 95.792zm162.288 95.795h-66.495c-35.576 0-64.415 28.84-64.415 64.415 0 35.438 28.617 64.192 64.003 64.414l.412-.001h66.495V191.587zm31.378 64.415c0 35.575 28.839 64.415 64.415 64.415h2.08c35.576 0 64.415-28.84 64.415-64.415s-28.839-64.415-64.415-64.415h-2.08c-35.576 0-64.415 28.84-64.415 64.415zm-97.873 95.793l-.412-.001c-35.386.221-64.003 28.975-64.003 64.413 0 35.445 29.225 64.415 64.931 64.415 36.282 0 65.979-29.436 65.979-65.455v-63.372h-66.495zm0-320.417c-35.576 0-64.415 28.84-64.415 64.414 0 35.576 28.84 64.415 64.415 64.415h66.495V31.377h-66.495zm97.873 128.829h66.495c35.576 0 64.415-28.839 64.415-64.415 0-35.575-28.839-64.414-64.415-64.414h-66.495v128.829z"/></symbol><symbol fill="currentColor" viewBox="0 0 24 24" id="stack-icon" xmlns="http://www.w3.org/2000/svg"><path d="M17 20v-5h2v6.988H3V15h1.98v5H17z"/><path d="M6.84 14.522l8.73 1.825.369-1.755-8.73-1.825-.369 1.755zm1.155-4.323l8.083 3.764.739-1.617-8.083-3.787-.739 1.64zm3.372-5.481L10.235 6.08l6.859 5.704 1.132-1.362-6.859-5.704zM15.57 17H6.655v2h8.915v-2zM12.861 3.111l6.193 6.415 1.414-1.415-6.43-6.177-1.177 1.177z"/></symbol><symbol fill="currentColor" viewBox="0 0 24 24" id="tailwind-icon" xmlns="http://www.w3.org/2000/svg"><path d="M11.782 5.72a4.773 4.773 0 00-4.8 4.173 3.43 3.43 0 012.741-1.687c1.689 0 2.974 1.972 3.758 2.587a5.733 5.733 0 005.382.935c2-.638 2.934-2.865 3.137-3.921-.969 1.379-2.44 2.207-4.259 1.231-1.253-.673-2.19-3.438-5.959-3.318zM6.8 11.979A4.772 4.772 0 002 16.151a3.431 3.431 0 012.745-1.687c1.689 0 2.974 1.972 3.758 2.587a5.733 5.733 0 005.382.935c2-.638 2.933-2.865 3.137-3.921-.97 1.379-2.44 2.208-4.259 1.231-1.253-.673-2.19-3.443-5.963-3.317z"/></symbol><symbol fill="none" viewBox="0 0 24 24" id="world-book-icon" xmlns="http://www.w3.org/2000/svg"><path stroke="currentColor" stroke-linecap="round" stroke-linejoin="round" stroke-width="2" d="M5 19V4a1 1 0 011-1h12a1 1 0 011 1v13H7a2 2 0 00-2 2zm0 0a2 2 0 002 2h12M9 3v14m7 0v4"/></symbol><symbol fill="none" viewBox="0 0 24 24" id="world-brush-icon" xmlns="http://www.w3.org/2000/svg"><path stroke="currentColor" stroke-linecap="round" stroke-linejoin="round" stroke-width="2" d="M4.988 19.012l5.41-5.41m2.366-6.424l4.058 4.058-2.03 5.41L5.3 20 4 18.701l3.355-9.494 5.41-2.029zm4.626 4.625L12.197 6.61 14.807 4 20 9.194l-2.61 2.61z"/></symbol><symbol fill="none" viewBox="0 0 24 24" id="world-code-icon" xmlns="http://www.w3.org/2000/svg"><path stroke="currentColor" stroke-linecap="round" stroke-linejoin="round" stroke-width="2" d="M8 8l-4 4 4 4m8 0l4-4-4-4m-2-3l-4 14"/></symbol><symbol fill="none" viewBox="0 0 24 24" id="world-headphones-icon" xmlns="http://www.w3.org/2000/svg"><path stroke="currentColor" stroke-linejoin="round" stroke-width="2" d="M20 16v-4a8 8 0 10-16 0v4m16 0v2a2 2 0 01-2 2h-2v-6h2a2 2 0 012 2zM4 16v2a2 2 0 002 2h2v-6H6a2 2 0 00-2 2z"/></symbol><symbol fill="none" viewBox="0 0 24 24" id="world-link-icon" xmlns="http://www.w3.org/2000/svg"><path stroke="currentColor" stroke-linecap="round" stroke-linejoin="round" stroke-width="2" d="M13.213 9.787a3.391 3.391 0 00-4.795 0l-3.425 3.426a3.39 3.39 0 004.795 4.794l.321-.304m-.321-4.49a3.39 3.39 0 004.795 0l3.424-3.426a3.39 3.39 0 00-4.794-4.795l-1.028.961"/></symbol><symbol fill="none" viewBox="0 0 24 24" id="world-rocket-icon" xmlns="http://www.w3.org/2000/svg"><path stroke="currentColor" stroke-linecap="round" stroke-linejoin="round" stroke-width="2" d="M10.051 8.102l-3.778.322-1.994 1.994a.94.94 0 00.533 1.6l2.698.316m8.39 1.617l-.322 3.78-1.994 1.994a.94.94 0 01-1.595-.533l-.4-2.652m8.166-11.174a1.366 1.366 0 00-1.12-1.12c-1.616-.279-4.906-.623-6.38.853-1.671 1.672-5.211 8.015-6.31 10.023a.932.932 0 00.162 1.111l.828.835.833.832a.932.932 0 001.111.163c2.008-1.102 8.35-4.642 10.021-6.312 1.475-1.478 1.133-4.77.855-6.385zm-2.961 3.722a1.88 1.88 0 11-3.76 0 1.88 1.88 0 013.76 0z"/></symbol><symbol fill="none" viewBox="0 0 24 24" id="world-world-icon" xmlns="http://www.w3.org/2000/svg"><path stroke="currentColor" stroke-linecap="round" stroke-linejoin="round" stroke-width="2" d="M12 18.5A2.493 2.493 0 017.51 20H7.5a2.468 2.468 0 01-2.4-3.154 2.98 2.98 0 01-.85-5.274 2.468 2.468 0 01.92-3.182 2.477 2.477 0 011.876-3.344 2.5 2.5 0 013.41-1.856A2.5 2.5 0 0112 5.5m0 13v-13m0 13a2.493 2.493 0 004.49 1.5h.01a2.468 2.468 0 002.403-3.154 2.98 2.98 0 00.847-5.274 2.468 2.468 0 00-.921-3.182 2.477 2.477 0 00-1.875-3.344A2.5 2.5 0 0014.5 3 2.5 2.5 0 0012 5.5m-8 5a2.5 2.5 0 013.48-2.3m-.28 8.551a3 3 0 01-2.953-5.185M20 10.5a2.5 2.5 0 00-3.481-2.3m.28 8.551a3 3 0 002.954-5.185"/></symbol></svg>